<?xml version="1.0" encoding="utf-8"?>
<!-- Generator: Adobe Illustrator 24.0.1, SVG Export Plug-In . SVG Version: 6.00 Build 0)  -->
<svg version="1.1" id="Layer_1" xmlns="http://www.w3.org/2000/svg" xmlns:xlink="http://www.w3.org/1999/xlink" x="0px" y="0px"
	 viewBox="0 0 512 512" style="enable-background:new 0 0 512 512;" xml:space="preserve">
<style type="text/css">
	.st0{fill:none;stroke:#A7A9AC;stroke-width:7.4738;stroke-miterlimit:10;}
	.st1{fill:none;stroke:#184979;stroke-width:7.4738;stroke-miterlimit:10;}
	.st2{fill:#A8D2F0;stroke:#184979;stroke-width:7.4738;stroke-miterlimit:10;}
</style>
<title>Asset 11</title>
<g id="Layer_2_1_">
	<g id="Layer_1-2">
		<path class="st0" d="M315.9,18.8c-131-33.5-264.4,45.4-298,176.4c-2.5,10-4.5,20.2-5.8,30.4"/>
		<path class="st0" d="M432.9,424.2c92.9-98.2,88.6-253.2-9.6-346.1c-4.6-4.4-9.5-8.6-14.4-12.6"/>
		<path class="st0" d="M22,331c41.5,128.7,179.4,199.5,308.1,158c5.6-1.8,11.2-3.8,16.7-6.1"/>
		<path class="st0" d="M117.4,101.2c-85.5,76-93.1,207-17.1,292.5c27.4,30.8,63.3,52.7,103.3,63"/>
		<circle class="st1" cx="255.2" cy="264" r="152.7"/>
		<polygon class="st2" points="228.7,292.5 188.3,251.9 170,270.2 210.6,310.7 228.7,328.9 247,310.7 340.3,217.3 322.1,199.1 		"/>
	</g>
</g>
</svg>
