<?xml version="1.0" encoding="utf-8"?>
<!-- Generator: Adobe Illustrator 24.0.1, SVG Export Plug-In . SVG Version: 6.00 Build 0)  -->
<svg version="1.1" id="Layer_1" xmlns="http://www.w3.org/2000/svg" xmlns:xlink="http://www.w3.org/1999/xlink" x="0px" y="0px"
	 viewBox="0 0 512 512" style="enable-background:new 0 0 512 512;" xml:space="preserve">
<style type="text/css">
	.st0{fill:none;stroke:#184979;stroke-width:6.8753;stroke-miterlimit:10;}
	.st1{fill:#A8D2F0;stroke:#184979;stroke-width:6.8753;stroke-miterlimit:10;}
	.st2{fill:none;stroke:#A7A9AC;stroke-width:6.8753;stroke-miterlimit:10;}
</style>
<title>Asset 7</title>
<g id="Layer_2_1_">
	<g id="Layer_1-2">
		<path class="st0" d="M245.1,105.5L46.5,400.2c-3.9,5.8-2.4,13.7,3.4,17.6c2.1,1.4,4.6,2.2,7.1,2.2h397c7,0,12.7-5.6,12.7-12.6
			c0-2.5-0.7-5-2.2-7.1L266.1,105.5c-3.9-5.8-11.8-7.3-17.6-3.4C247.2,103,246,104.1,245.1,105.5z"/>
		<path class="st1" d="M237.7,364.5c-0.7-12.3,8.6-22.8,20.9-23.5c0.3,0,0.6,0,0.9,0c12-0.1,21.8,9.6,21.9,21.6c0,0.7,0,1.3-0.1,2
			c1,11.8-7.7,22.1-19.4,23.2c-0.6,0.1-1.2,0.1-1.7,0.1c-12.3,0.2-22.3-9.6-22.5-21.9C237.7,365.4,237.7,364.9,237.7,364.5z
			 M242.7,305.3l-3.2-95.4c-0.3-11.1,8.5-20.4,19.7-20.6c0.2,0,0.3,0,0.5,0l0,0c11.1,0,20.1,9,20.1,20.1c0,0.2,0,0.4,0,0.6
			l-3.4,95.3c-0.3,9.1-7.8,16.3-16.8,16.3l0,0C250.5,321.6,243,314.4,242.7,305.3z"/>
		<path class="st2" d="M206.2,89.9c18.2-27.6,55.3-35.3,82.9-17.2c6.8,4.5,12.7,10.3,17.2,17.2"/>
		<path class="st2" d="M501.6,377.1c6.7,32.4-14.1,64.1-46.4,70.8c-8,1.7-16.3,1.7-24.4,0"/>
		<path class="st2" d="M10.5,377.1c-6.7,32.4,14,64.1,46.4,70.8c8.1,1.7,16.5,1.7,24.5,0"/>
	</g>
</g>
</svg>
