<?xml version="1.0" encoding="utf-8"?>
<!-- Generator: Adobe Illustrator 24.0.1, SVG Export Plug-In . SVG Version: 6.00 Build 0)  -->
<svg version="1.1" id="Layer_1" xmlns="http://www.w3.org/2000/svg" xmlns:xlink="http://www.w3.org/1999/xlink" x="0px" y="0px"
	 viewBox="0 0 512 512" style="enable-background:new 0 0 512 512;" xml:space="preserve">
<style type="text/css">
	.st0{fill:none;stroke:#A7A9AC;stroke-width:7.5331;stroke-miterlimit:10;}
	.st1{fill-rule:evenodd;clip-rule:evenodd;fill:#A8D2F0;stroke:#184979;stroke-width:7.5331;stroke-miterlimit:10;}
</style>
<title>Asset 2</title>
<g id="Layer_2_1_">
	<g id="Layer_1-2">
		<path class="st0" d="M256.1,502.8c136.2,0,246.6-110.4,246.6-246.6c0-10.4-0.7-20.8-2-31.2"/>
		<path class="st0" d="M40.3,136.4c-66.2,119.3-23.1,269.6,96.1,335.7c5.5,3.1,11.1,5.9,16.9,8.5"/>
		<path class="st0" d="M465.1,124.4C392.4,9.1,239.9-25.4,124.6,47.3c-5.1,3.2-10.1,6.6-14.9,10.2"/>
		<path class="st0" d="M429.1,372.8c64.5-95.6,39.3-225.3-56.3-289.8c-34.6-23.3-75.3-35.8-117-35.7"/>
		<path class="st1" d="M157,96c-13,3.8-44.1,36.3-47.9,49.3c-7.5,25.9,14.2,84.3,27.2,107.6c41.5,69.1,73.9,100,140.4,141.5
			c21.1,11.4,44,18.9,67.8,22.1c11.4-0.2,22.2-4.8,30.1-13c18.2-19.4,42.8-28.6,24.6-49.3L359.1,309c-3.9-6-11.7-8.3-18.2-5.2
			c-13.2,10.1-25.8,20.9-37.7,32.5c-28.6,11.6-120.5-94.7-122-125.8c0-14.3,27.3-26,37.7-41.5c3.1-4.6,3.6-10.5,1.3-15.6
			c-13.8-18.8-29.5-36.2-46.7-51.9C169.3,97.1,163.1,95,157,96z"/>
	</g>
</g>
</svg>
