<?xml version="1.0" encoding="utf-8"?>
<!-- Generator: Adobe Illustrator 24.0.1, SVG Export Plug-In . SVG Version: 6.00 Build 0)  -->
<svg version="1.1" id="Layer_1" xmlns="http://www.w3.org/2000/svg" xmlns:xlink="http://www.w3.org/1999/xlink" x="0px" y="0px"
	 viewBox="0 0 512 512" style="enable-background:new 0 0 512 512;" xml:space="preserve">
<style type="text/css">
	.st0{fill:none;stroke:#A7A9AC;stroke-width:7.4712;stroke-miterlimit:10;}
	.st1{fill:none;stroke:#184979;stroke-width:7.4712;stroke-miterlimit:10;}
	.st2{fill:#A8D2F0;stroke:#184979;stroke-width:7.4712;stroke-miterlimit:10;}
</style>
<title>Asset 12</title>
<g id="Layer_2_1_">
	<g id="Layer_1-2">
		<path class="st0" d="M196.2,18.9C327.1-14.7,460.4,64.2,494,195.1c0,0.1,0,0.1,0,0.2c2.6,10,4.5,20.2,5.8,30.4"/>
		<path class="st0" d="M79.1,424.2c-92.9-98.2-88.6-253.1,9.6-346c4.6-4.4,9.5-8.6,14.4-12.6"/>
		<path class="st0" d="M489.9,331c-41.5,128.7-179.4,199.4-308,157.9c-5.6-1.8-11.1-3.8-16.6-6"/>
		<path class="st0" d="M394.4,101.3c85.5,75.9,93.2,206.8,17.3,292.3c-27.4,30.9-63.4,52.8-103.4,63.1"/>
		<circle class="st1" cx="256.8" cy="264" r="152.6"/>
		<polygon class="st2" points="331.2,211.9 313,193.8 261.8,245 210.5,193.8 192.3,211.9 243.5,263.3 192.3,314.5 210.5,332.7 
			261.8,281.4 313,332.7 331.2,314.5 279.9,263.3 		"/>
	</g>
</g>
</svg>
