<?xml version="1.0" encoding="utf-8"?>
<!-- Generator: Adobe Illustrator 24.0.1, SVG Export Plug-In . SVG Version: 6.00 Build 0)  -->
<svg version="1.1" id="Layer_1" xmlns="http://www.w3.org/2000/svg" xmlns:xlink="http://www.w3.org/1999/xlink" x="0px" y="0px"
	 viewBox="0 0 512 512" style="enable-background:new 0 0 512 512;" xml:space="preserve">
<style type="text/css">
	.st0{fill:none;stroke:#A7A9AC;stroke-width:7.5148;stroke-miterlimit:10;}
	.st1{fill:none;stroke:#184979;stroke-width:7.5148;stroke-miterlimit:10;}
	.st2{fill:#A8D2F0;stroke:#184979;stroke-width:7.5148;stroke-miterlimit:10;}
</style>
<title>Asset 9</title>
<g id="Layer_2_1_">
	<g id="Layer_1-2">
		<path class="st0" d="M39.5,386.2c-48.9-85-43.6-190.9,13.7-270.5"/>
		<path class="st0" d="M488.5,170c27.8,70.8,22,150.3-15.9,216.3"/>
		<path class="st1" d="M334.9,443.3c-49.4,21.3-105.3,21.7-155,1.1"/>
		<path class="st1" d="M415.8,144.8c42,57.4,50,132.8,21,197.7"/>
		<path class="st1" d="M58.1,265.3c0-1.2,0-2.4,0-3.7c0-109.3,88.6-197.9,197.9-197.9c0,0,0,0,0,0"/>
		<path class="st1" d="M122.7,315c-21-52.5-9.2-112.4,30.1-153"/>
		<path class="st1" d="M270.7,119.1c78.6,9.5,134.6,80.9,125.1,159.4c-8.6,71-68.2,124.9-139.8,126.1"/>
		<line class="st1" x1="412.1" y1="381.3" x2="412.1" y2="411"/>
		<line class="st1" x1="412.1" y1="444.8" x2="412.1" y2="474.5"/>
		<line class="st1" x1="365.5" y1="427.9" x2="395.2" y2="427.9"/>
		<line class="st1" x1="429" y1="427.9" x2="458.8" y2="427.9"/>
		<line class="st1" x1="382.4" y1="37.5" x2="382.4" y2="67.2"/>
		<line class="st1" x1="382.4" y1="101" x2="382.4" y2="130.7"/>
		<line class="st1" x1="335.8" y1="84.1" x2="365.5" y2="84.1"/>
		<line class="st1" x1="399.3" y1="84.1" x2="429" y2="84.1"/>
		<line class="st1" x1="147.7" y1="379" x2="126.7" y2="400.1"/>
		<line class="st1" x1="102.8" y1="423.9" x2="81.8" y2="444.9"/>
		<line class="st1" x1="81.8" y1="379" x2="102.8" y2="400.1"/>
		<line class="st1" x1="126.7" y1="423.9" x2="147.7" y2="444.9"/>
		<polygon class="st2" points="258.3,165.8 288,225.9 354.3,235.6 306.3,282.4 317.7,348.5 258.3,317.2 198.9,348.5 210.3,282.4 
			162.2,235.6 228.6,225.9 		"/>
	</g>
</g>
</svg>
