<?xml version="1.0" encoding="utf-8"?>
<!-- Generator: Adobe Illustrator 24.0.1, SVG Export Plug-In . SVG Version: 6.00 Build 0)  -->
<svg version="1.1" id="Layer_1" xmlns="http://www.w3.org/2000/svg" xmlns:xlink="http://www.w3.org/1999/xlink" x="0px" y="0px"
	 viewBox="0 0 512 512" style="enable-background:new 0 0 512 512;" xml:space="preserve">
<style type="text/css">
	.st0{fill:none;stroke:#A7A9AC;stroke-width:7.623;stroke-miterlimit:10;}
	.st1{fill:none;stroke:#184979;stroke-width:7.623;stroke-miterlimit:10;}
	.st2{fill:#A8D2F0;stroke:#184979;stroke-width:7.623;stroke-miterlimit:10;}
</style>
<title>Asset 3</title>
<g id="Layer_2_1_">
	<g id="Layer_1-2">
		<path class="st0" d="M256,6.3C118,6.3,6.2,118.2,6.3,256.2c0,10.5,0.7,20.9,2,31.3"/>
		<path class="st0" d="M474.3,377.2c67-120.7,23.4-272.8-97.3-339.7c-5.6-3.1-11.3-6-17.1-8.6"/>
		<path class="st0" d="M44.7,389.2c73.6,116.7,227.9,151.5,344.6,77.9c5.1-3.2,10-6.6,14.8-10.1"/>
		<path class="st0" d="M80.8,137.9c-65.4,96.6-40.1,227.9,56.6,293.3c35,23.7,76.3,36.3,118.6,36.3"/>
		<circle class="st1" cx="256" cy="256" r="162.4"/>
		<path class="st2" d="M257.4,152.8c-11.4,0.6-20.1,10.4-19.5,21.8c0.6,11.4,10.4,20.1,21.8,19.5c10.9-0.6,19.5-9.6,19.5-20.6
			c0-11.4-9.2-20.7-20.6-20.7C258.2,152.8,257.8,152.8,257.4,152.8z"/>
		<path class="st2" d="M292.8,351.4v11.8h-71.5v-11.8l18.8-3.7c0-14.3,0.5-32.6,0.5-45.1v-13.7c0-15.9,0-24.8-0.9-36.3l-20.7-2.7
			v-10.7l52.1-18.3l4.7,3l-0.8,40.5v38.1c0,12.5,0,30.9,0,45.2L292.8,351.4z"/>
	</g>
</g>
</svg>
