<?xml version="1.0" encoding="utf-8"?>
<!-- Generator: Adobe Illustrator 24.0.1, SVG Export Plug-In . SVG Version: 6.00 Build 0)  -->
<svg version="1.1" id="Layer_1" xmlns="http://www.w3.org/2000/svg" xmlns:xlink="http://www.w3.org/1999/xlink" x="0px" y="0px"
	 viewBox="0 0 512 512" style="enable-background:new 0 0 512 512;" xml:space="preserve">
<style type="text/css">
	.st0{fill:#A8D2F0;stroke:#184979;stroke-width:6.9006;stroke-miterlimit:10;}
	.st1{fill:none;stroke:#184979;stroke-width:6.9006;stroke-miterlimit:10;}
	.st2{fill:#FFFFFF;stroke:#184979;stroke-width:6.9006;stroke-miterlimit:10;}
</style>
<title>Asset 5</title>
<g id="Layer_2_1_">
	<g id="Layer_1-2">
		<polygon class="st0" points="128,149.3 246.8,261.3 128,373.4 128,317.3 10.4,317.3 10.4,205.3 128,205.3 		"/>
		<line class="st1" x1="502.1" y1="426.5" x2="69" y2="426.5"/>
		<polygon class="st2" points="433.1,426.5 278.1,485.5 278.1,26.5 433.1,90.8 		"/>
		<path class="st1" d="M300.1,225.6h11.3c3.8,0,6.9,3.1,6.9,6.9v48.3c0,3.8-3.1,6.9-6.9,6.9h-11.3"/>
		<polyline class="st1" points="146.5,142.3 146.5,82.3 278.1,82.3 278.1,426.5 146.5,426.5 146.5,377.2 		"/>
		<polyline class="st1" points="178.8,158.7 178.8,118.2 278.1,118.2 278.1,426.5 178.8,426.5 178.8,346.6 		"/>
	</g>
</g>
</svg>
