<?xml version="1.0" encoding="utf-8"?>
<!-- Generator: Adobe Illustrator 24.0.1, SVG Export Plug-In . SVG Version: 6.00 Build 0)  -->
<svg version="1.1" id="Layer_1" xmlns="http://www.w3.org/2000/svg" xmlns:xlink="http://www.w3.org/1999/xlink" x="0px" y="0px"
	 viewBox="0 0 512 512" style="enable-background:new 0 0 512 512;" xml:space="preserve">
<style type="text/css">
	.st0{fill:none;stroke:#A7A9AC;stroke-width:7.0456;stroke-miterlimit:10;}
	.st1{fill:#FFFFFF;stroke:#184979;stroke-width:7.0456;stroke-miterlimit:10;}
	.st2{fill:#A8D2F0;stroke:#184979;stroke-width:7.0456;stroke-miterlimit:10;}
</style>
<title>Asset 6</title>
<g id="Layer_2_1_">
	<g id="Layer_1-2">
		<path class="st0" d="M74.5,372.6c-21.2-50-20.9-106.5,0.7-156.3"/>
		<path class="st0" d="M439.6,222.8c18.9,48.1,18.2,101.7-1.8,149.4"/>
		<path class="st0" d="M47.1,432.5C-8.3,348.3-7.7,239,48.7,155.4"/>
		<path class="st0" d="M463.4,155.4c55.3,82.2,56.9,189.3,4.1,273.2"/>
		<path class="st1" d="M295.4,362.1c-3.5,24.3-26.1,41.1-50.4,37.6c-19.5-2.8-34.8-18.1-37.6-37.6"/>
		<path class="st2" d="M207.4,362.1h-62.3c-3.5,0-6.4-2.9-6.4-6.4v-30.6c0-1.5,0.6-3,1.6-4.2c17.6-20.8,27.3-47.2,27.3-74.5v-32.7
			c0.1-37.5,25.1-70.5,61.2-80.6c-12.1-12.5-11.8-32.4,0.6-44.5c12.5-12.1,32.4-11.8,44.5,0.6c11.9,12.2,11.9,31.7,0,43.9
			c36.1,10.1,61.1,43.1,61.2,80.6v32.7c0,27.3,9.7,53.7,27.4,74.5c1,1.2,1.5,2.6,1.5,4.2v30.6c0,3.5-2.8,6.4-6.3,6.4
			c0,0-0.1,0-0.1,0C357.6,362.1,207.4,362.1,207.4,362.1z"/>
		<circle class="st1" cx="251.4" cy="110.3" r="13.2"/>
	</g>
</g>
</svg>
