<?xml version="1.0" encoding="utf-8"?>
<!-- Generator: Adobe Illustrator 24.0.1, SVG Export Plug-In . SVG Version: 6.00 Build 0)  -->
<svg version="1.1" id="Layer_1" xmlns="http://www.w3.org/2000/svg" xmlns:xlink="http://www.w3.org/1999/xlink" x="0px" y="0px"
	 viewBox="0 0 512 512" style="enable-background:new 0 0 512 512;" xml:space="preserve">
<style type="text/css">
	.st0{fill:none;stroke:#A7A9AC;stroke-width:7.6099;stroke-miterlimit:10;}
	.st1{fill:none;stroke:#184979;stroke-width:7.6099;stroke-miterlimit:10;}
	.st2{fill:#A8D2F0;stroke:#184979;stroke-width:7.6099;stroke-miterlimit:10;}
</style>
<title>Asset 8</title>
<g id="Layer_2_1_">
	<g id="Layer_1-2">
		<path class="st0" d="M445.4,94.2c89.2,105.1,76.4,262.7-28.7,351.9c-7.8,6.6-16,12.8-24.5,18.4"/>
		<path class="st0" d="M22.3,168.6c48.4-129,192.1-194.4,321.1-146c6,2.2,11.8,4.7,17.6,7.4"/>
		<path class="st0" d="M291.6,502.7C155.3,522.5,28.9,428.1,9.1,291.9c-0.9-6-1.5-12.1-2-18.1"/>
		<path class="st1" d="M396.6,135.9c66.4,77.6,57.3,194.4-20.3,260.8c-5.9,5.1-12.2,9.8-18.7,14.1"/>
		<path class="st1" d="M82.5,191.2C118.3,95.5,224.9,46.9,320.6,82.6c4.6,1.7,9,3.6,13.5,5.6"/>
		<path class="st1" d="M282.3,439.1C181.1,453.7,87.3,383.5,72.7,282.3c-0.6-4.3-1.1-8.7-1.4-13"/>
		<path class="st2" d="M274.8,325.6h-40.1v-12.3c-0.5-13.7,1.7-27.3,6.5-40.1c6.3-12.7,14.9-24.2,25.3-33.8
			c9.4-8.5,17.9-18,25.2-28.4c2.8-5.5,4.2-11.6,4-17.8c0.7-20.3-15.2-37.4-35.6-38c-0.8,0-1.7,0-2.5,0c-23.7,0-38,15.8-43.8,47.2
			l-40.5-6.1c0.4-22.2,9.3-43.3,24.9-59.1c15.4-15.3,36.4-23.6,58.1-22.8c22-0.7,43.3,7.5,59.1,22.8c15.6,15.2,24.2,36.2,23.6,58
			c-0.1,11.7-3,23.1-8.4,33.4c-9.8,16-21.7,30.5-35.5,43.3c-7.2,6.5-13.1,14.2-17.4,22.8C275,304.7,274.1,315.2,274.8,325.6z
			 M234.7,375.8v-9.6c0-12.2,9.9-22.1,22.1-22.1l0,0l0,0c12.2,0,22.1,9.9,22.1,22.1c0,0,0,0,0,0v9.6c0,12.2-9.9,22.1-22.1,22.1
			c0,0,0,0,0,0l0,0C244.6,397.9,234.7,388,234.7,375.8L234.7,375.8z"/>
	</g>
</g>
</svg>
