<?xml version="1.0" encoding="utf-8"?>
<!-- Generator: Adobe Illustrator 24.0.1, SVG Export Plug-In . SVG Version: 6.00 Build 0)  -->
<svg version="1.1" id="Layer_1" xmlns="http://www.w3.org/2000/svg" xmlns:xlink="http://www.w3.org/1999/xlink" x="0px" y="0px"
	 viewBox="0 0 512 512" style="enable-background:new 0 0 512 512;" xml:space="preserve">
<style type="text/css">
	.st0{fill:none;stroke:#A7A9AC;stroke-width:7.6221;stroke-miterlimit:10;}
	.st1{fill:#A8D2F0;stroke:#184979;stroke-width:7.6221;stroke-miterlimit:10;}
</style>
<title>Asset 4</title>
<g id="Layer_2_1_">
	<g id="Layer_1-2">
		<path class="st0" d="M505.6,246.4c5.3,137.8-102.1,253.8-239.9,259.1c-0.1,0-0.2,0-0.4,0c-10.6,0.4-21.1,0.1-31.6-0.8"/>
		<path class="st0" d="M126.7,42.3c118.1-71.4,271.6-33.5,343,84.6c3.4,5.6,6.5,11.2,9.4,17"/>
		<path class="st0" d="M130.8,472C11.5,402.9-29.2,250.1,40,130.8c3-5.2,6.2-10.3,9.6-15.3"/>
		<path class="st1" d="M353.6,112.7c-20.4-13.9-43.3-23.6-67.5-28.7c-28-6-57-5.4-84.7,1.7c-26.6,6.8-51.2,19.7-72,37.7
			c-19.4,17.1-34.3,38.7-43.1,63c-0.6,1.7-0.2,3.5,1,4.9c1.9,1.9,4.9,1.9,6.8,0l0,0c16.3-15.4,35.3-27.6,55.9-36.3
			c9.7-3.9,19.7-6.8,29.9-8.7c9.8-2,19.8-2.8,29.8-2.5c19,0.2,37.8,4.2,55.3,11.7l4.9,2.4l-38.1,20.7l162.1,99.1l5-189.6
			L353.6,112.7z"/>
		<path class="st1" d="M131.1,405.3c20.4,13.9,43.3,23.6,67.5,28.7c28,5.9,57,5.3,84.7-1.7c26.6-6.9,51.3-20,72-38.1
			c19.6-16.9,34.6-38.4,43.7-62.7c0.6-1.7,0.2-3.5-1-4.9c-1.9-1.9-4.9-1.9-6.8,0l0,0c-16.3,15.4-35.3,27.7-56,36.3
			c-9.6,3.9-19.7,6.8-29.9,8.6c-9.8,2-19.8,2.9-29.7,2.6c-19-0.3-37.8-4.2-55.3-11.7c-1.7-0.7-3.3-1.6-4.9-2.4l38.1-20.7L91.2,240.2
			l-4.9,189.9L131.1,405.3z"/>
	</g>
</g>
</svg>
