<?xml version="1.0" encoding="utf-8"?>
<!-- Generator: Adobe Illustrator 24.0.1, SVG Export Plug-In . SVG Version: 6.00 Build 0)  -->
<svg version="1.1" id="Layer_1" xmlns="http://www.w3.org/2000/svg" xmlns:xlink="http://www.w3.org/1999/xlink" x="0px" y="0px"
	 viewBox="0 0 512 512" style="enable-background:new 0 0 512 512;" xml:space="preserve">
<style type="text/css">
	.st0{fill:#FFFFFF;stroke:#184979;stroke-width:8.05;stroke-miterlimit:10;}
	.st1{fill:#A8D2F0;stroke:#184979;stroke-width:8.05;stroke-miterlimit:10;}
	.st2{fill:none;stroke:#184979;stroke-width:8.05;stroke-miterlimit:10;}
</style>
<title>Asset 13</title>
<g id="Layer_2_1_">
	<g id="Layer_1-2">
		
			<rect x="310.9" y="292.9" transform="matrix(0.7071 -0.7071 0.7071 0.7071 -133.0282 323.2269)" class="st0" width="25.4" height="58.5"/>
		
			<rect x="379.3" y="316.2" transform="matrix(0.7071 -0.7071 0.7071 0.7071 -168.4284 408.5842)" class="st0" width="59.4" height="182.8"/>
		<path class="st1" d="M307.2,308.7c-66.4,66.4-174,66.3-240.3,0s-66.3-174,0-240.3C133.3,2,240.9,2,307.2,68.3
			C373.6,134.7,373.6,242.3,307.2,308.7z M92.1,93.5C39.6,146,39.6,231,92,283.5c52.5,52.5,137.5,52.5,190,0s52.5-137.5,0-190
			c0,0,0,0,0,0C229.6,41.1,144.5,41.1,92.1,93.5z"/>
		<path class="st2" d="M112.3,263.3C71,222,71,155,112.3,113.7"/>
	</g>
</g>
</svg>
