<?xml version="1.0" encoding="utf-8"?>
<!-- Generator: Adobe Illustrator 24.0.1, SVG Export Plug-In . SVG Version: 6.00 Build 0)  -->
<svg version="1.1" id="Layer_1" xmlns="http://www.w3.org/2000/svg" xmlns:xlink="http://www.w3.org/1999/xlink" x="0px" y="0px"
	 viewBox="0 0 512 512" style="enable-background:new 0 0 512 512;" xml:space="preserve">
<style type="text/css">
	.st0{fill:#A8D2F0;stroke:#184979;stroke-width:7.2948;stroke-miterlimit:10;}
	.st1{fill:none;stroke:#184979;stroke-width:7.2948;stroke-miterlimit:10;}
</style>
<title>Asset 16</title>
<g id="Layer_2_1_">
	<g id="Layer_1-2">
		<path class="st0" d="M324.7,189.4l-33-16.5c-1-0.6-2.1-1.1-3.2-1.6c-1.4-8-2.8-15.8-4.2-23.6c7.3-9.6,14.6-19.2,21.9-28.7
			c1-1.4,2.1-2.8,3.1-4.2c0.8-1.4,0.6-3.2-0.6-4.4l-33.1-41l-4.4-5.8c-0.9-1-2.3-1.4-3.6-0.9l-35.9,14.6l-4.3,1.3l-17.2-9.2
			c-3.3-10.9-6.5-21.9-9.7-32.7c-0.4-1.6-0.9-3.2-1.4-4.9c-0.5-1.5-1.9-2.5-3.5-2.6h-59.8c-1.5,0.2-2.8,1.2-3.2,2.6
			c-3.7,11.5-7.3,22.9-10.4,34.3c0,1.1-0.7,2.2-0.9,3.3l-17.4,9.1L69.1,64.8l-5.1-2c-1.3-0.4-2.6,0-3.5,0.9l-33,41l-4.2,5.8
			c-1.1,1.2-1.3,2.9-0.6,4.4c7.3,9.8,15,19.8,22.4,29.6l2.5,3.2c-1.8,7.9-3.1,15.8-4.5,23.9l-31.6,15.5l-4.7,2.3
			c-1.4,0.8-2,2.5-1.7,4c3.3,16.2,6.6,32.5,10.1,48.7c0.4,2.3,0.9,4.5,1.4,6.9c0.4,1.6,1.9,2.7,3.5,2.6l37.9,3.4h3.6l12.1,16.7
			c-1.4,11.4-2.7,22.8-4.1,34.1c0,1.6-0.4,3.4-0.6,5c-0.1,1.3,0.7,2.5,1.8,3.1l45.2,21.9l6.4,3.1c1.5,0.8,3.3,0.5,4.4-0.7
			c8-8.4,16-16.8,24-25.3l2.5-2.5h24.8c7.7,8,15.4,16.1,23.1,24.2c1.1,1.2,2.3,2.4,3.4,3.6c1.1,1.2,2.9,1.4,4.4,0.7l45.2-21.9
			l6.4-3.1c1.1-0.6,1.8-1.8,1.8-3.1c-1.5-11.7-2.8-23.4-4.2-35.1c0-1.3-0.4-2.6-0.5-3.9l12.2-16.8l36-3.2l5.5,0c1.6,0,3-1.1,3.5-2.6
			c3.4-16.3,6.8-32.5,10.1-48.7c0.4-2.3,0.9-4.5,1.4-6.9C326.9,192,326.2,190.3,324.7,189.4z M165.7,235
			c-27.6-0.1-50-22.6-49.9-50.2s22.6-50,50.2-49.9s50,22.6,49.9,50.2c-0.1,24.8-18.3,45.8-42.9,49.4
			C170.5,234.8,168.1,235,165.7,235z"/>
		<path class="st1" d="M505.5,377.5L482.3,366l-2.3-1.2c-0.9-5.5-2-11-2.9-16.6l15.2-20.1l2.3-2.9c0.6-1,0.4-2.3-0.4-3.1L471,293.5
			l-2.8-4c-0.6-0.7-1.6-1-2.5-0.7l-25.2,10.1l-2.7,1l-12.2-6.3l-6.8-22.9c0-1.1-0.7-2.3-1-3.4c-0.3-1.1-1.3-1.9-2.4-1.9h-42.1
			c-1.2,0-2.2,0.8-2.5,1.9l-7.3,23.9c0,0.8-0.5,1.5-0.7,2.3l-12.2,6.3l-24.3-9.7l-3.6-1.4c-0.9-0.3-1.9,0-2.5,0.7l-23.1,28.7l-3.2,4
			c-0.8,0.8-0.9,2.1-0.4,3.1c5.2,7.3,10.4,13.8,15.7,20.7l1.7,2.3c-0.9,5.5-2,11.1-2.9,16.6l-22.3,11l-3.3,1.6
			c-1,0.6-1.5,1.8-1.2,2.9c2.3,11.3,4.7,22.7,7.3,34.1c0,1.5,0.7,3.1,0.9,4.7c0.3,1.1,1.3,1.9,2.5,1.9l26.6,2.3h2.5l8.5,12
			c-1,8-2,15.9-2.9,23.9c0,1.2,0,2.3,0,3.5c0,0.9,0.4,1.8,1.2,2.2l31.7,15.1l4.4,2.1c0.9,0.7,2.2,0.7,3.1,0l16.9-17.7
			c0.5-0.6,1.1-1.3,1.7-1.8h16.9l16.1,17l2.4,2.6c0.9,0.7,2.2,0.7,3.1,0l31.7-15.1l4.5-2.1c0.8-0.5,1.3-1.3,1.2-2.2
			c-0.9-8.2-2-16.4-2.9-24.6c0-0.9,0-1.8,0-2.8l8.5-11.7l25.2-2.3h3.8c1.1,0,2.1-0.8,2.5-1.9c2.3-11.4,4.7-22.7,7.3-34.1
			c0.4-1.6,0.7-3.1,1-4.7C507.4,379.4,506.7,378,505.5,377.5z M394.1,409.4c-19.4-0.2-35-16-34.8-35.4c0.2-19.4,16-35,35.4-34.8
			c19.4,0.2,35,16,34.8,35.4c-0.1,17.3-12.9,32-30,34.5C397.6,409.3,395.9,409.4,394.1,409.4z"/>
	</g>
</g>
</svg>
