<?xml version="1.0" encoding="utf-8"?>
<!-- Generator: Adobe Illustrator 24.0.1, SVG Export Plug-In . SVG Version: 6.00 Build 0)  -->
<svg version="1.1" id="Layer_1" xmlns="http://www.w3.org/2000/svg" xmlns:xlink="http://www.w3.org/1999/xlink" x="0px" y="0px"
	 viewBox="0 0 512 512" style="enable-background:new 0 0 512 512;" xml:space="preserve">
<style type="text/css">
	.st0{fill:none;stroke:#A7A9AC;stroke-width:7.5623;stroke-miterlimit:10;}
	.st1{fill:#A8D2F0;stroke:#184979;stroke-width:7.5623;stroke-miterlimit:10;}
</style>
<title>Asset 15</title>
<g id="Layer_2_1_">
	<g id="Layer_1-2">
		<path class="st0" d="M256.1,8.3c136.9,0.1,247.8,111.1,247.7,248c0,10.4-0.7,20.7-2,31"/>
		<path class="st0" d="M39.4,376.2c-66.4-119.7-23.2-270.6,96.5-337c5.5-3.1,11.2-5.9,16.9-8.6"/>
		<path class="st0" d="M465.9,388.1C392.8,503.9,239.8,538.5,124,465.4c-5-3.2-9.9-6.5-14.7-10.1"/>
		<path class="st1" d="M157.7,159.6l114,11.3l-9-20c57.2,5.6,98.9,56.5,93.3,113.7s-56.5,98.9-113.7,93.3s-98.9-56.5-93.3-113.7
			c1.6-16.2,7-31.9,15.8-45.6l-51-32.5c-48.7,76.8-25.9,178.6,50.9,227.3s178.6,25.9,227.3-50.9S418,163.7,341.1,115
			c-31.4-19.9-68.5-28.6-105.5-24.7l-11-23.7L157.7,159.6z"/>
		<path class="st0" d="M429.8,138.8c64.9,95.8,39.7,226.1-56.1,291c-34.7,23.5-75.7,36-117.6,36"/>
	</g>
</g>
</svg>
