<?xml version="1.0" encoding="utf-8"?>
<!-- Generator: Adobe Illustrator 24.0.1, SVG Export Plug-In . SVG Version: 6.00 Build 0)  -->
<svg version="1.1" id="Layer_1" xmlns="http://www.w3.org/2000/svg" xmlns:xlink="http://www.w3.org/1999/xlink" x="0px" y="0px"
	 viewBox="0 0 512 512" style="enable-background:new 0 0 512 512;" xml:space="preserve">
<style type="text/css">
	.st0{fill:none;stroke:#184979;stroke-width:7.8069;stroke-miterlimit:10;}
	.st1{fill:#A8D2F0;stroke:#184979;stroke-width:7.8069;stroke-miterlimit:10;}
	.st2{fill:none;stroke:#A7A9AC;stroke-width:7.8069;stroke-miterlimit:10;}
</style>
<title>Asset 1</title>
<g id="Layer_2_1_">
	<g id="Layer_1-2">
		<path class="st0" d="M345.6,192.3c0,14-8.6,35.8-16.6,39.8c-4.1,17.9-12.3,34.6-24,48.7c-9.9,11.9-22.9,20.9-37.6,25.8
			c-9,3-18.7,3-27.6,0c-14.7-5-27.7-13.9-37.6-25.8c-11.8-14.2-20-31-24-49c-7.8-4-16.6-25.8-16.6-39.8c0.1-8.2,5.5-15.4,13.3-18
			v-31.2c-0.1-12.6,2.5-25,7.8-36.4c11.4-24.5,36.4-39.9,63.4-39h15.6c27-0.8,52,14.5,63.4,39c5.3,11.4,7.9,23.8,7.8,36.4V174
			C340.6,176.8,345.7,184.1,345.6,192.3z"/>
		<path class="st1" d="M414.2,399v46.3c-93.3,78.1-229.6,76.5-321.1-3.7V399c0-14.2,8.3-27.1,21.3-32.9L190,332c2.7-1.2,5.1-3,7-5.2
			c34.1,24.4,79.9,24.8,114.4,1.1c1.8,1.7,3.8,3.1,6,4.1l75.6,34.1C406,372,414.2,384.9,414.2,399z"/>
		<path class="st0" d="M196.9,326.7c3.4-3.8,5.3-8.8,5.3-13.9v-32c9.9,11.9,22.9,20.9,37.6,25.8c9,3,18.7,3,27.6,0
			c14.7-4.9,27.7-13.9,37.6-25.8v32c0,5.6,2.3,11,6.3,15"/>
		<path class="st0" d="M311.4,327.8c-4-4-6.3-9.4-6.3-15v-32c-9.9,11.9-22.9,20.9-37.6,25.8c-9,3-18.7,3-27.6,0
			c-14.7-5-27.7-13.9-37.6-25.8v32c0,5.1-1.9,10.1-5.3,13.9C231.1,351.1,276.8,351.5,311.4,327.8z"/>
		<path class="st2" d="M59.8,405.7c-82.7-108.4-61.8-263.3,46.6-346s263.3-61.8,346,46.6c67.9,89,67.4,212.6-1.3,301.1"/>
	</g>
</g>
</svg>
